<svg xmlns="http://www.w3.org/2000/svg" version="1.1" xmlns:xlink="http://www.w3.org/1999/xlink" xmlns:svgjs="http://svgjs.dev/svgjs" width="1500" height="1500" viewBox="0 0 1500 1500"><rect width="1500" height="1500" fill="#ffffff"></rect><g transform="matrix(0.6666666666666666,0,0,0.6666666666666666,249.39393939393938,571.1416558849573)"><svg viewBox="0 0 396 142" data-background-color="#ffffff" preserveAspectRatio="xMidYMid meet" height="537" width="1500" xmlns="http://www.w3.org/2000/svg" xmlns:xlink="http://www.w3.org/1999/xlink"><g id="tight-bounds" transform="matrix(1,0,0,1,0.2400000000000091,-0.05618752978753605)"><svg viewBox="0 0 395.52 142.1123750595751" height="142.1123750595751" width="395.52"><g><svg viewBox="0 0 643.8326487980859 231.3323899210995" height="142.1123750595751" width="395.52"><g transform="matrix(1,0,0,1,248.31264879808597,0)"><svg viewBox="0 0 395.5199999999999 231.3323899210995" height="231.3323899210995" width="395.5199999999999"><g id="textblocktransform"><svg viewBox="0 0 395.5199999999999 231.3323899210995" height="231.3323899210995" width="395.5199999999999" id="textblock"><g><svg viewBox="0 0 395.5199999999999 231.3323899210995" height="231.3323899210995" width="395.5199999999999"><g transform="matrix(1,0,0,1,0,0)"><svg width="395.5199999999999" viewBox="2.1500000000000004 -40.800000000000004 196.44999750000002 99.25" height="231.3323899210995" data-palette-color="#000000"><svg></svg><svg></svg><g class="wordmark-text-0" data-fill-palette-color="primary" id="text-0"><path d="M6.55-11.55l1.6 8.1c1.933 1.333 4.65 2 8.15 2v0c2.367 0 4.143-0.683 5.33-2.05 1.18-1.367 1.77-3 1.77-4.9v0c0-1-0.083-1.843-0.25-2.53-0.167-0.68-0.523-1.453-1.07-2.32-0.553-0.867-1.43-1.733-2.63-2.6-1.2-0.867-2.767-1.783-4.7-2.75v0c-2.267-1.133-4.1-2.2-5.5-3.2-1.4-1-2.45-2.033-3.15-3.1-0.7-1.067-1.167-2.083-1.4-3.05-0.233-0.967-0.35-2.167-0.35-3.6v0c0-2.933 1.177-5.21 3.53-6.83 2.347-1.613 5.12-2.42 8.32-2.42v0c3.967 0 7.8 1 11.5 3v0 9.6c-1.133 0.2-2.083 0.2-2.85 0v0l-1.6-8.65c-2.133-1.167-4.517-1.75-7.15-1.75v0c-1.767 0-3.257 0.527-4.47 1.58-1.22 1.047-1.83 2.52-1.83 4.42v0c0 1.067 0.067 1.9 0.2 2.5 0.133 0.6 0.467 1.307 1 2.12 0.533 0.82 1.417 1.637 2.65 2.45 1.233 0.82 2.883 1.73 4.95 2.73v0c7.133 3.467 10.7 7.6 10.7 12.4v0c0 3.4-1.3 6.15-3.9 8.25-2.6 2.1-6 3.15-10.2 3.15v0c-4.167 0-8-0.983-11.5-2.95v0-9.6c1.133-0.2 2.083-0.2 2.85 0zM49.55-1.7v0c2.2 0 3.94-1.067 5.22-3.2 1.287-2.133 1.93-5.35 1.93-9.65v0c0-3.3-0.607-5.817-1.82-7.55-1.22-1.733-2.83-2.6-4.83-2.6v0c-2.933 0-5.467 1.417-7.6 4.25v0 15.55c1.867 2.133 4.233 3.2 7.1 3.2zM37.7 4.75v-24.3c0-2.233-0.05-3.8-0.15-4.7v0l-3.95-0.5c-0.1-0.533-0.1-1.167 0-1.9v0c2.333-0.167 5.2-0.517 8.6-1.05v0c0.3 0.3 0.467 0.633 0.5 1v0c-0.167 1.167-0.25 2.4-0.25 3.7v0c2.7-3.133 5.8-4.7 9.3-4.7v0c2.933 0 5.377 1.217 7.33 3.65 1.947 2.433 2.92 5.65 2.92 9.65v0c0 4.633-1.277 8.357-3.83 11.17-2.547 2.82-5.553 4.23-9.02 4.23v0c-2.433 0-4.667-0.783-6.7-2.35v0 12.25l5.05 0.75c0.133 0.533 0.133 1.2 0 2v0c-2.1-0.1-4.417-0.15-6.95-0.15v0c-1.867 0-4.2 0.033-7 0.1v0c-0.2-0.667-0.2-1.317 0-1.95v0l3.95-0.55c0.133-1.833 0.2-3.95 0.2-6.35zM69.3-8.7v-23.75c0-2.2-0.05-3.833-0.15-4.9v0l-3.95-0.5c-0.133-0.5-0.133-1.133 0-1.9v0c2.233-0.167 5.083-0.517 8.55-1.05v0c0.3 0.333 0.467 0.667 0.5 1v0c-0.167 0.867-0.25 3.567-0.25 8.1v0 9.45c2.467-3.4 5.433-5.1 8.9-5.1v0c2.067 0 3.833 0.517 5.3 1.55 1.467 1.033 2.2 2.8 2.2 5.3v0 17.95l4.05 0.75c0.133 0.533 0.133 1.2 0 2v0c-2.1-0.1-4.233-0.15-6.4-0.15v0c-1.533 0-3.7 0.033-6.5 0.1v0c-0.2-0.633-0.2-1.283 0-1.95v0l3.95-0.55c0.133-1.833 0.2-3.95 0.2-6.35v0-9.3c0-2.333-0.29-4.017-0.87-5.05-0.587-1.033-1.647-1.55-3.18-1.55v0c-1.267 0-2.59 0.467-3.97 1.4-1.387 0.933-2.613 2.283-3.68 4.05v0 16.6l4.05 0.75c0.133 0.533 0.133 1.2 0 2v0c-2.1-0.1-4.233-0.15-6.4-0.15v0c-1.533 0-3.7 0.033-6.5 0.1v0c-0.2-0.633-0.2-1.283 0-1.95v0l3.95-0.55c0.133-1.833 0.2-3.95 0.2-6.35zM118.3-14.1v0h-15.7c-0.3 8.5 2.25 12.75 7.65 12.75v0c2.3 0 4.65-1.017 7.05-3.05v0c0.5 0.3 0.883 0.817 1.15 1.55v0c-2.3 2.567-5.217 3.85-8.75 3.85v0c-8.133 0-12.2-4.783-12.2-14.35v0c0-4.533 1.2-8.06 3.6-10.58 2.4-2.513 5.2-3.77 8.4-3.77v0c3.5 0 6.017 1.217 7.55 3.65 1.533 2.433 2.3 5.6 2.3 9.5v0c-0.333 0.267-0.683 0.417-1.05 0.45zM109.4-25.7v0c-1.733 0-3.21 0.9-4.43 2.7-1.213 1.8-1.953 4.1-2.22 6.9v0h6.2c2.467 0 4.233-0.15 5.3-0.45v0c0-2.733-0.417-4.943-1.25-6.63-0.833-1.68-2.033-2.52-3.6-2.52zM132.15-26.7v0l-0.1 5.15c0.833-1.533 1.993-2.943 3.48-4.23 1.48-1.28 2.887-1.92 4.22-1.92v0c1.033 0 1.95 0.117 2.75 0.35v0c0.267 0.433 0.4 1 0.4 1.7v0c0 1.1-0.233 2.2-0.7 3.3v0c-1.2-0.333-2.35-0.5-3.45-0.5v0c-2.733 0-4.983 1.333-6.75 4v0l-0.1 8.75v7.55l5.55 0.75c0.133 0.533 0.133 1.2 0 2v0c-2.1-0.1-4.5-0.15-7.2-0.15v0c-2.033 0-4.45 0.033-7.25 0.1v0c-0.2-0.633-0.2-1.283 0-1.95v0l3.95-0.55c0.133-1.833 0.2-3.95 0.2-6.35v0-13.7c0-0.667-0.05-1.283-0.15-1.85v0l-3.95-0.5c-0.133-0.5-0.133-1.133 0-1.9v0c2.3-0.167 5.167-0.517 8.6-1.05v0c0.3 0.333 0.467 0.667 0.5 1zM166.1-14.1v0h-15.7c-0.3 8.5 2.25 12.75 7.65 12.75v0c2.3 0 4.65-1.017 7.05-3.05v0c0.5 0.3 0.883 0.817 1.15 1.55v0c-2.3 2.567-5.217 3.85-8.75 3.85v0c-8.133 0-12.2-4.783-12.2-14.35v0c0-4.533 1.2-8.06 3.6-10.58 2.4-2.513 5.2-3.77 8.4-3.77v0c3.5 0 6.017 1.217 7.55 3.65 1.533 2.433 2.3 5.6 2.3 9.5v0c-0.333 0.267-0.683 0.417-1.05 0.45zM157.2-25.7v0c-1.733 0-3.207 0.9-4.42 2.7-1.22 1.8-1.963 4.1-2.23 6.9v0h6.2c2.467 0 4.233-0.15 5.3-0.45v0c0-2.733-0.417-4.943-1.25-6.63-0.833-1.68-2.033-2.52-3.6-2.52z" fill="#000000" fill-rule="nonzero" stroke="none" stroke-width="1" stroke-linecap="butt" stroke-linejoin="miter" stroke-miterlimit="10" stroke-dasharray="" stroke-dashoffset="0" font-family="none" font-weight="none" font-size="none" text-anchor="none" style="mix-blend-mode: normal" data-fill-palette-color="primary" opacity="1"></path><path transform="translate(0,57.45)" d="M12-31.65v0 29.45l4.05 0.5c0.133 0.5 0.133 1.117 0 1.85v0c-2.1-0.1-4.383-0.15-6.85-0.15v0c-1.8 0-4.1 0.033-6.9 0.1v0c-0.2-0.6-0.2-1.2 0-1.8v0l4.15-0.6c0.133-1.267 0.2-3.217 0.2-5.85v0-29.45l-4.05-0.5c-0.133-0.5-0.133-1.117 0-1.85v0c1.833 0.133 4.117 0.2 6.85 0.2v0c2.433 0 4.733-0.05 6.9-0.15v0c0.2 0.6 0.2 1.2 0 1.8v0l-4.15 0.6c-0.133 1.267-0.2 3.217-0.2 5.85zM41-8.7v-9.15c0-2.567-0.34-4.367-1.02-5.4-0.687-1.033-1.83-1.55-3.43-1.55v0c-2.467 0-4.95 1.85-7.45 5.55v0 16.7l4.05 0.75c0.133 0.533 0.133 1.2 0 2v0c-2.1-0.1-4.25-0.15-6.45-0.15v0c-1.533 0-3.7 0.033-6.5 0.1v0c-0.2-0.633-0.2-1.283 0-1.95v0l3.95-0.55c0.133-1.833 0.2-3.95 0.2-6.35v0-13.7c0-0.667-0.05-1.283-0.15-1.85v0l-3.95-0.5c-0.133-0.5-0.133-1.133 0-1.9v0c2.3-0.167 5.167-0.517 8.6-1.05v0c0.3 0.333 0.467 0.667 0.5 1v0c-0.167 0.867-0.25 2.35-0.25 4.45v0c2.633-3.633 5.6-5.45 8.9-5.45v0c5.167 0 7.75 2.45 7.75 7.35v0 17.8l4.05 0.75c0.133 0.533 0.133 1.2 0 2v0c-2.1-0.1-4.25-0.15-6.45-0.15v0c-1.533 0-3.7 0.033-6.5 0.1v0c-0.2-0.633-0.2-1.283 0-1.95v0l3.95-0.55c0.133-1.833 0.2-3.95 0.2-6.35zM64.4-40.8v0c4.967 0 7.45 1.967 7.45 5.9v0c-0.7 0.733-2.367 1.083-5 1.05v0c-0.333-3.5-1.183-5.25-2.55-5.25v0c-1.267 0-2.157 1.007-2.67 3.02-0.52 2.02-0.78 5.697-0.78 11.03v0h7.05c0.2 0.633 0.2 1.283 0 1.95v0l-7.05 1.05v19.25l6.05 1c0.2 0.667 0.2 1.333 0 2v0c-2.1-0.1-4.683-0.15-7.75-0.15v0c-1.8 0-4.1 0.033-6.9 0.1v0c-0.267-0.6-0.267-1.25 0-1.95v0l3.65-0.8c0.133-1.767 0.2-3.8 0.2-6.1v0-13.85l-3.55-0.55c-0.2-0.667-0.2-1.317 0-1.95v0h3.55v-3.4c0-2 0.283-3.91 0.85-5.73 0.567-1.813 1.507-3.37 2.82-4.67 1.32-1.3 2.863-1.95 4.63-1.95zM71.15-13.3v0c0-2 0.293-3.877 0.88-5.63 0.58-1.747 1.42-3.27 2.52-4.57 1.1-1.3 2.427-2.327 3.98-3.08 1.547-0.747 3.287-1.12 5.22-1.12v0c1.9 0 3.633 0.373 5.2 1.12 1.567 0.753 2.907 1.78 4.02 3.08 1.12 1.3 1.98 2.823 2.58 4.57 0.6 1.753 0.9 3.63 0.9 5.63v0c0 2.067-0.307 3.967-0.92 5.7-0.62 1.733-1.49 3.24-2.61 4.52-1.113 1.287-2.453 2.287-4.02 3-1.567 0.72-3.283 1.08-5.15 1.08v0c-1.967 0-3.727-0.35-5.28-1.05-1.547-0.7-2.86-1.683-3.94-2.95-1.087-1.267-1.92-2.777-2.5-4.53-0.587-1.747-0.88-3.67-0.88-5.77zM78.45-22.5v0c-1.433 2.033-2.15 5.1-2.15 9.2v0c0 2.033 0.193 3.817 0.58 5.35 0.38 1.533 0.903 2.807 1.57 3.82 0.667 1.02 1.45 1.78 2.35 2.28 0.9 0.5 1.883 0.75 2.95 0.75v0c1.033 0 2.017-0.25 2.95-0.75 0.933-0.5 1.733-1.26 2.4-2.28 0.667-1.013 1.2-2.287 1.6-3.82 0.4-1.533 0.6-3.317 0.6-5.35v0c0-2.033-0.2-3.827-0.6-5.38-0.4-1.547-0.94-2.83-1.62-3.85-0.687-1.013-1.49-1.78-2.41-2.3-0.913-0.513-1.887-0.77-2.92-0.77v0c-2.067 0-3.833 1.033-5.3 3.1zM108.1-32.7v0 7.15h7.05c0.067 0.4 0.1 0.7 0.1 0.9v0c0 0.3-0.033 0.65-0.1 1.05v0l-7.05 1.05v13.75c0 2.467 0.223 4.207 0.67 5.22 0.453 1.02 1.163 1.53 2.13 1.53v0c0.867 0 2.217-0.35 4.05-1.05v0c0.333 0.3 0.567 0.867 0.7 1.7v0c-1 0.6-1.757 1.04-2.27 1.32-0.52 0.287-1.173 0.54-1.96 0.76-0.78 0.213-1.603 0.32-2.47 0.32v0c-1.667 0-3.023-0.643-4.07-1.93-1.053-1.28-1.58-3.237-1.58-5.87v0-16.35l-3.5-0.45c-0.067-0.333-0.1-0.617-0.1-0.85v0c0-0.267 0.033-0.633 0.1-1.1v0c0.933-0.167 1.74-0.46 2.42-0.88 0.687-0.413 1.263-0.997 1.73-1.75 0.467-0.747 0.823-1.413 1.07-2 0.253-0.58 0.563-1.42 0.93-2.52v0c0.3-0.1 0.667-0.15 1.1-0.15v0c0.4 0 0.75 0.05 1.05 0.15zM139.45-14.1v0h-15.7c-0.3 8.5 2.25 12.75 7.65 12.75v0c2.3 0 4.65-1.017 7.05-3.05v0c0.5 0.3 0.883 0.817 1.15 1.55v0c-2.3 2.567-5.217 3.85-8.75 3.85v0c-8.133 0-12.2-4.783-12.2-14.35v0c0-4.533 1.2-8.06 3.6-10.58 2.4-2.513 5.2-3.77 8.4-3.77v0c3.5 0 6.017 1.217 7.55 3.65 1.533 2.433 2.3 5.6 2.3 9.5v0c-0.333 0.267-0.683 0.417-1.05 0.45zM130.55-25.7v0c-1.733 0-3.207 0.9-4.42 2.7-1.22 1.8-1.963 4.1-2.23 6.9v0h6.2c2.467 0 4.233-0.15 5.3-0.45v0c0-2.733-0.417-4.943-1.25-6.63-0.833-1.68-2.033-2.52-3.6-2.52zM166.55-20.3v0c-0.7 0.733-2.35 1.083-4.95 1.05v0c-0.533-4.2-2.05-6.3-4.55-6.3v0c-1.967 0-3.633 1.133-5 3.4-1.367 2.267-2.05 5.25-2.05 8.95v0c0 3.8 0.6 6.727 1.8 8.78 1.2 2.047 3 3.07 5.4 3.07v0c2.533 0 5.017-1.033 7.45-3.1v0c0.5 0.3 0.883 0.817 1.15 1.55v0c-2.433 2.6-5.483 3.9-9.15 3.9v0c-3.5 0-6.367-1.21-8.6-3.63-2.233-2.413-3.35-5.97-3.35-10.67v0c0-4.5 1.24-8.027 3.72-10.58 2.487-2.547 5.33-3.82 8.53-3.82v0c2.533 0 4.767 0.633 6.7 1.9 1.933 1.267 2.9 3.1 2.9 5.5zM173.35-8.7v-23.75c0-2.2-0.05-3.833-0.15-4.9v0l-3.95-0.5c-0.133-0.5-0.133-1.133 0-1.9v0c2.233-0.167 5.083-0.517 8.55-1.05v0c0.3 0.333 0.467 0.667 0.5 1v0c-0.167 0.867-0.25 3.567-0.25 8.1v0 9.45c2.467-3.4 5.433-5.1 8.9-5.1v0c2.067 0 3.833 0.517 5.3 1.55 1.467 1.033 2.2 2.8 2.2 5.3v0 17.95l4.05 0.75c0.133 0.533 0.133 1.2 0 2v0c-2.1-0.1-4.233-0.15-6.4-0.15v0c-1.533 0-3.7 0.033-6.5 0.1v0c-0.2-0.633-0.2-1.283 0-1.95v0l3.95-0.55c0.133-1.833 0.2-3.95 0.2-6.35v0-9.3c0-2.333-0.293-4.017-0.88-5.05-0.58-1.033-1.637-1.55-3.17-1.55v0c-1.267 0-2.593 0.467-3.98 1.4-1.38 0.933-2.603 2.283-3.67 4.05v0 16.6l4.05 0.75c0.133 0.533 0.133 1.2 0 2v0c-2.1-0.1-4.233-0.15-6.4-0.15v0c-1.533 0-3.7 0.033-6.5 0.1v0c-0.2-0.633-0.2-1.283 0-1.95v0l3.95-0.55c0.133-1.833 0.2-3.95 0.2-6.35z" fill="#000000" fill-rule="nonzero" stroke="none" stroke-width="1" stroke-linecap="butt" stroke-linejoin="miter" stroke-miterlimit="10" stroke-dasharray="" stroke-dashoffset="0" font-family="none" font-weight="none" font-size="none" text-anchor="none" style="mix-blend-mode: normal" data-fill-palette-color="primary" opacity="1"></path></g></svg></g></svg></g></svg></g></svg></g><g transform="matrix(1,0,0,1,0,17.683898649336953)"><svg viewBox="0 0 222.43253759999996 195.96459262242558" height="195.96459262242558" width="222.43253759999996"><g><svg xmlns="http://www.w3.org/2000/svg" xmlns:xlink="http://www.w3.org/1999/xlink" version="1.1" x="0" y="0" viewBox="6.3 11.5 87.4 77" style="enable-background:new 0 0 100 100;" xml:space="preserve" height="195.96459262242558" width="222.43253759999996" class="icon-icon-0" data-fill-palette-color="accent" id="icon-0"><path d="M72.3 12.3L71.9 11.5H28.2L6.3 50 28.1 88.5H71.8L93.7 50zM33.3 25.3L9.9 47.7 28.5 14.9zM70.7 14.8L77.1 50.5 36.9 25.8zM35.5 27.3L76.5 52.5 35.5 75.8zM77 54.5L69.8 85.3 37.2 77.2zM33.5 75L9.9 50.5 33.5 27.8zM33.2 77.6L28.6 85.3 11.5 55.1zM35 78.6L66.4 86.5H30.2zM79.3 53.3L90.9 50.8 72.1 84zM90.7 48.9L79.3 51.4 73.4 18.3zM35 24.3L30 13.5H68.2z" fill="#000000" data-fill-palette-color="accent"></path></svg></g></svg></g></svg></g><defs></defs></svg><rect width="395.52" height="142.1123750595751" fill="none" stroke="none" visibility="hidden"></rect></g></svg></g></svg>