<svg xmlns="http://www.w3.org/2000/svg" version="1.1" xmlns:xlink="http://www.w3.org/1999/xlink" xmlns:svgjs="http://svgjs.dev/svgjs" width="2000" height="1500" viewBox="0 0 2000 1500"><rect width="2000" height="1500" fill="#1a365d"></rect><g transform="matrix(0.75,0,0,0.75,249.090909090909,636.5555908947356)"><svg viewBox="0 0 396 60" data-background-color="#1a365d" preserveAspectRatio="xMidYMid meet" height="303" width="2000" xmlns="http://www.w3.org/2000/svg" xmlns:xlink="http://www.w3.org/1999/xlink"><g id="tight-bounds" transform="matrix(1,0,0,1,0.2400000000000091,-0.04768076428663903)"><svg viewBox="0 0 395.52 60.0953615285733" height="60.0953615285733" width="395.52"><g><svg viewBox="0 0 494.26572796095166 75.0988005992032" height="60.0953615285733" width="395.52"><g transform="matrix(1,0,0,1,98.74572796095164,8.949049701992035)"><svg viewBox="0 0 395.52000000000004 57.20070119521913" height="57.20070119521913" width="395.52000000000004"><g id="textblocktransform"><svg viewBox="0 0 395.52000000000004 57.20070119521913" height="57.20070119521913" width="395.52000000000004" id="textblock"><g><svg viewBox="0 0 395.52000000000004 57.20070119521913" height="57.20070119521913" width="395.52000000000004"><g transform="matrix(1,0,0,1,0,0)"><svg width="395.52000000000004" viewBox="3.7 -40.8 376.47 54.449999999999996" height="57.20070119521913" data-palette-color="#cdedfe"><path d="M6.55-11.55L8.15-3.45Q11.05-1.45 16.3-1.45L16.3-1.45Q19.85-1.45 21.63-3.5 23.4-5.55 23.4-8.4L23.4-8.4Q23.4-9.9 23.15-10.93 22.9-11.95 22.08-13.25 21.25-14.55 19.45-15.85 17.65-17.15 14.75-18.6L14.75-18.6Q11.35-20.3 9.25-21.8 7.15-23.3 6.1-24.9 5.05-26.5 4.7-27.95 4.35-29.4 4.35-31.55L4.35-31.55Q4.35-35.95 7.88-38.38 11.4-40.8 16.2-40.8L16.2-40.8Q22.15-40.8 27.7-37.8L27.7-37.8 27.7-28.2Q26-27.9 24.85-28.2L24.85-28.2 23.25-36.85Q20.05-38.6 16.1-38.6L16.1-38.6Q13.45-38.6 11.63-37.02 9.8-35.45 9.8-32.6L9.8-32.6Q9.8-31 10-30.1 10.2-29.2 11-27.98 11.8-26.75 13.65-25.53 15.5-24.3 18.6-22.8L18.6-22.8Q29.3-17.6 29.3-10.4L29.3-10.4Q29.3-5.3 25.4-2.15 21.5 1 15.2 1L15.2 1Q8.95 1 3.7-1.95L3.7-1.95 3.7-11.55Q5.4-11.85 6.55-11.55L6.55-11.55ZM49.55-1.7L49.55-1.7Q52.85-1.7 54.77-4.9 56.7-8.1 56.7-14.55L56.7-14.55Q56.7-19.5 54.87-22.1 53.05-24.7 50.05-24.7L50.05-24.7Q45.65-24.7 42.45-20.45L42.45-20.45 42.45-4.9Q45.25-1.7 49.55-1.7ZM37.7 4.75L37.7-19.55Q37.7-22.9 37.55-24.25L37.55-24.25 33.6-24.75Q33.45-25.55 33.6-26.65L33.6-26.65Q37.1-26.9 42.2-27.7L42.2-27.7Q42.65-27.25 42.7-26.7L42.7-26.7Q42.45-24.95 42.45-23L42.45-23Q46.5-27.7 51.75-27.7L51.75-27.7Q56.15-27.7 59.07-24.05 62-20.4 62-14.4L62-14.4Q62-7.45 58.17-3.23 54.35 1 49.15 1L49.15 1Q45.5 1 42.45-1.35L42.45-1.35 42.45 10.9 47.5 11.65Q47.7 12.45 47.5 13.65L47.5 13.65Q44.35 13.5 40.55 13.5L40.55 13.5Q37.75 13.5 33.55 13.6L33.55 13.6Q33.25 12.6 33.55 11.65L33.55 11.65 37.5 11.1Q37.7 8.35 37.7 4.75L37.7 4.75ZM69.3-8.7L69.3-32.45Q69.3-35.75 69.15-37.35L69.15-37.35 65.2-37.85Q65-38.6 65.2-39.75L65.2-39.75Q68.55-40 73.75-40.8L73.75-40.8Q74.2-40.3 74.25-39.8L74.25-39.8Q74-38.5 74-31.7L74-31.7 74-22.25Q77.7-27.35 82.9-27.35L82.9-27.35Q86-27.35 88.2-25.8 90.4-24.25 90.4-20.5L90.4-20.5 90.4-2.55 94.45-1.8Q94.65-1 94.45 0.2L94.45 0.2Q91.3 0.05 88.05 0.05L88.05 0.05Q85.75 0.05 81.55 0.15L81.55 0.15Q81.25-0.8 81.55-1.8L81.55-1.8 85.5-2.35Q85.7-5.1 85.7-8.7L85.7-8.7 85.7-18Q85.7-21.5 84.82-23.05 83.95-24.6 81.65-24.6L81.65-24.6Q79.75-24.6 77.67-23.2 75.6-21.8 74-19.15L74-19.15 74-2.55 78.05-1.8Q78.25-1 78.05 0.2L78.05 0.2Q74.9 0.05 71.65 0.05L71.65 0.05Q69.35 0.05 65.15 0.15L65.15 0.15Q64.85-0.8 65.15-1.8L65.15-1.8 69.1-2.35Q69.3-5.1 69.3-8.7L69.3-8.7ZM118.29-14.1L118.29-14.1 102.59-14.1Q102.14-1.35 110.24-1.35L110.24-1.35Q113.69-1.35 117.29-4.4L117.29-4.4Q118.04-3.95 118.44-2.85L118.44-2.85Q114.99 1 109.69 1L109.69 1Q97.49 1 97.49-13.35L97.49-13.35Q97.49-20.15 101.09-23.93 104.69-27.7 109.49-27.7L109.49-27.7Q114.74-27.7 117.04-24.05 119.34-20.4 119.34-14.55L119.34-14.55Q118.84-14.15 118.29-14.1ZM109.39-25.7L109.39-25.7Q106.79-25.7 104.97-23 103.14-20.3 102.74-16.1L102.74-16.1 108.94-16.1Q112.64-16.1 114.24-16.55L114.24-16.55Q114.24-20.65 112.99-23.18 111.74-25.7 109.39-25.7ZM132.14-26.7L132.14-26.7 132.04-21.55Q133.29-23.85 135.52-25.78 137.74-27.7 139.74-27.7L139.74-27.7Q141.29-27.7 142.49-27.35L142.49-27.35Q142.89-26.7 142.89-25.65L142.89-25.65Q142.89-24 142.19-22.35L142.19-22.35Q140.39-22.85 138.74-22.85L138.74-22.85Q134.64-22.85 131.99-18.85L131.99-18.85 131.89-10.1 131.89-2.55 137.44-1.8Q137.64-1 137.44 0.2L137.44 0.2Q134.29 0.05 130.24 0.05L130.24 0.05Q127.19 0.05 122.99 0.15L122.99 0.15Q122.69-0.8 122.99-1.8L122.99-1.8 126.94-2.35Q127.14-5.1 127.14-8.7L127.14-8.7 127.14-22.4Q127.14-23.4 126.99-24.25L126.99-24.25 123.04-24.75Q122.84-25.5 123.04-26.65L123.04-26.65Q126.49-26.9 131.64-27.7L131.64-27.7Q132.09-27.2 132.14-26.7ZM166.09-14.1L166.09-14.1 150.39-14.1Q149.94-1.35 158.04-1.35L158.04-1.35Q161.49-1.35 165.09-4.4L165.09-4.4Q165.84-3.95 166.24-2.85L166.24-2.85Q162.79 1 157.49 1L157.49 1Q145.29 1 145.29-13.35L145.29-13.35Q145.29-20.15 148.89-23.93 152.49-27.7 157.29-27.7L157.29-27.7Q162.54-27.7 164.84-24.05 167.14-20.4 167.14-14.55L167.14-14.55Q166.64-14.15 166.09-14.1ZM157.19-25.7L157.19-25.7Q154.59-25.7 152.76-23 150.94-20.3 150.54-16.1L150.54-16.1 156.74-16.1Q160.44-16.1 162.04-16.55L162.04-16.55Q162.04-20.65 160.79-23.18 159.54-25.7 157.19-25.7ZM193.58-31.65L193.58-31.65 193.58-2.2 197.63-1.7Q197.83-0.95 197.63 0.15L197.63 0.15Q194.48 0 190.78 0L190.78 0Q188.08 0 183.88 0.1L183.88 0.1Q183.58-0.8 183.88-1.7L183.88-1.7 188.03-2.3Q188.23-4.2 188.23-8.15L188.23-8.15 188.23-37.6 184.18-38.1Q183.98-38.85 184.18-39.95L184.18-39.95Q186.93-39.75 191.03-39.75L191.03-39.75Q194.68-39.75 197.93-39.9L197.93-39.9Q198.23-39 197.93-38.1L197.93-38.1 193.78-37.5Q193.58-35.6 193.58-31.65ZM222.58-8.7L222.58-17.85Q222.58-21.7 221.56-23.25 220.53-24.8 218.13-24.8L218.13-24.8Q214.43-24.8 210.68-19.25L210.68-19.25 210.68-2.55 214.73-1.8Q214.93-1 214.73 0.2L214.73 0.2Q211.58 0.05 208.28 0.05L208.28 0.05Q205.98 0.05 201.78 0.15L201.78 0.15Q201.48-0.8 201.78-1.8L201.78-1.8 205.73-2.35Q205.93-5.1 205.93-8.7L205.93-8.7 205.93-22.4Q205.93-23.4 205.78-24.25L205.78-24.25 201.83-24.75Q201.63-25.5 201.83-26.65L201.83-26.65Q205.28-26.9 210.43-27.7L210.43-27.7Q210.88-27.2 210.93-26.7L210.93-26.7Q210.68-25.4 210.68-22.25L210.68-22.25Q214.63-27.7 219.58-27.7L219.58-27.7Q227.33-27.7 227.33-20.35L227.33-20.35 227.33-2.55 231.38-1.8Q231.58-1 231.38 0.2L231.38 0.2Q228.23 0.05 224.93 0.05L224.93 0.05Q222.63 0.05 218.43 0.15L218.43 0.15Q218.13-0.8 218.43-1.8L218.43-1.8 222.38-2.35Q222.58-5.1 222.58-8.7L222.58-8.7ZM245.98-40.8L245.98-40.8Q253.43-40.8 253.43-34.9L253.43-34.9Q252.38-33.8 248.43-33.85L248.43-33.85Q247.93-39.1 245.88-39.1L245.88-39.1Q243.98-39.1 243.2-36.08 242.43-33.05 242.43-25.05L242.43-25.05 249.48-25.05Q249.78-24.1 249.48-23.1L249.48-23.1 242.43-22.05 242.43-2.8 248.48-1.8Q248.78-0.8 248.48 0.2L248.48 0.2Q245.33 0.05 240.73 0.05L240.73 0.05Q238.03 0.05 233.83 0.15L233.83 0.15Q233.43-0.75 233.83-1.8L233.83-1.8 237.48-2.6Q237.68-5.25 237.68-8.7L237.68-8.7 237.68-22.55 234.13-23.1Q233.83-24.1 234.13-25.05L234.13-25.05 237.68-25.05 237.68-28.45Q237.68-31.45 238.53-34.18 239.38-36.9 241.35-38.85 243.33-40.8 245.98-40.8ZM252.73-13.3L252.73-13.3Q252.73-16.3 253.6-18.93 254.48-21.55 256.13-23.5 257.78-25.45 260.1-26.58 262.43-27.7 265.33-27.7L265.33-27.7Q268.18-27.7 270.53-26.58 272.88-25.45 274.55-23.5 276.23-21.55 277.13-18.93 278.03-16.3 278.03-13.3L278.03-13.3Q278.03-10.2 277.1-7.6 276.18-5 274.5-3.08 272.83-1.15 270.48-0.08 268.13 1 265.33 1L265.33 1Q262.38 1 260.05-0.05 257.73-1.1 256.1-3 254.48-4.9 253.6-7.53 252.73-10.15 252.73-13.3ZM260.03-22.5L260.03-22.5Q257.88-19.45 257.88-13.3L257.88-13.3Q257.88-10.25 258.45-7.95 259.03-5.65 260.03-4.13 261.03-2.6 262.38-1.85 263.73-1.1 265.33-1.1L265.33-1.1Q266.88-1.1 268.28-1.85 269.68-2.6 270.68-4.13 271.68-5.65 272.28-7.95 272.88-10.25 272.88-13.3L272.88-13.3Q272.88-16.35 272.28-18.68 271.68-21 270.65-22.53 269.63-24.05 268.25-24.83 266.88-25.6 265.33-25.6L265.33-25.6Q262.23-25.6 260.03-22.5ZM289.67-32.7L289.67-32.7 289.67-25.55 296.72-25.55Q296.82-24.95 296.82-24.65L296.82-24.65Q296.82-24.2 296.72-23.6L296.72-23.6 289.67-22.55 289.67-8.8Q289.67-5.1 290.35-3.58 291.02-2.05 292.47-2.05L292.47-2.05Q293.77-2.05 296.52-3.1L296.52-3.1Q297.02-2.65 297.22-1.4L297.22-1.4Q295.72-0.5 294.95-0.08 294.17 0.35 293 0.68 291.82 1 290.52 1L290.52 1Q288.02 1 286.45-0.93 284.87-2.85 284.87-6.8L284.87-6.8 284.87-23.15 281.37-23.6Q281.27-24.1 281.27-24.45L281.27-24.45Q281.27-24.85 281.37-25.55L281.37-25.55Q282.77-25.8 283.8-26.43 284.82-27.05 285.52-28.18 286.22-29.3 286.6-30.18 286.97-31.05 287.52-32.7L287.52-32.7Q287.97-32.85 288.62-32.85L288.62-32.85Q289.22-32.85 289.67-32.7ZM321.02-14.1L321.02-14.1 305.32-14.1Q304.87-1.35 312.97-1.35L312.97-1.35Q316.42-1.35 320.02-4.4L320.02-4.4Q320.77-3.95 321.17-2.85L321.17-2.85Q317.72 1 312.42 1L312.42 1Q300.22 1 300.22-13.35L300.22-13.35Q300.22-20.15 303.82-23.93 307.42-27.7 312.22-27.7L312.22-27.7Q317.47-27.7 319.77-24.05 322.07-20.4 322.07-14.55L322.07-14.55Q321.57-14.15 321.02-14.1ZM312.12-25.7L312.12-25.7Q309.52-25.7 307.7-23 305.87-20.3 305.47-16.1L305.47-16.1 311.67-16.1Q315.37-16.1 316.97-16.55L316.97-16.55Q316.97-20.65 315.72-23.18 314.47-25.7 312.12-25.7ZM348.12-20.3L348.12-20.3Q347.07-19.2 343.17-19.25L343.17-19.25Q342.37-25.55 338.62-25.55L338.62-25.55Q335.67-25.55 333.62-22.15 331.57-18.75 331.57-13.2L331.57-13.2Q331.57-7.5 333.37-4.42 335.17-1.35 338.77-1.35L338.77-1.35Q342.57-1.35 346.22-4.45L346.22-4.45Q346.97-4 347.37-2.9L347.37-2.9Q343.72 1 338.22 1L338.22 1Q332.97 1 329.62-2.63 326.27-6.25 326.27-13.3L326.27-13.3Q326.27-20.05 329.99-23.88 333.72-27.7 338.52-27.7L338.52-27.7Q342.32-27.7 345.22-25.8 348.12-23.9 348.12-20.3ZM354.92-8.7L354.92-32.45Q354.92-35.75 354.77-37.35L354.77-37.35 350.82-37.85Q350.62-38.6 350.82-39.75L350.82-39.75Q354.17-40 359.37-40.8L359.37-40.8Q359.82-40.3 359.87-39.8L359.87-39.8Q359.62-38.5 359.62-31.7L359.62-31.7 359.62-22.25Q363.32-27.35 368.52-27.35L368.52-27.35Q371.62-27.35 373.82-25.8 376.02-24.25 376.02-20.5L376.02-20.5 376.02-2.55 380.07-1.8Q380.27-1 380.07 0.2L380.07 0.2Q376.92 0.05 373.67 0.05L373.67 0.05Q371.37 0.05 367.17 0.15L367.17 0.15Q366.87-0.8 367.17-1.8L367.17-1.8 371.12-2.35Q371.32-5.1 371.32-8.7L371.32-8.7 371.32-18Q371.32-21.5 370.44-23.05 369.57-24.6 367.27-24.6L367.27-24.6Q365.37-24.6 363.29-23.2 361.22-21.8 359.62-19.15L359.62-19.15 359.62-2.55 363.67-1.8Q363.87-1 363.67 0.2L363.67 0.2Q360.52 0.05 357.27 0.05L357.27 0.05Q354.97 0.05 350.77 0.15L350.77 0.15Q350.47-0.8 350.77-1.8L350.77-1.8 354.72-2.35Q354.92-5.1 354.92-8.7L354.92-8.7Z" opacity="1" transform="matrix(1,0,0,1,0,0)" fill="#cdedfe" class="wordmark-text-0" data-fill-palette-color="primary" id="text-0"></path></svg></g></svg></g></svg></g></svg></g><g><svg viewBox="0 0 85.24201522558909 75.0988005992032" height="75.0988005992032" width="85.24201522558909"><g><svg xmlns="http://www.w3.org/2000/svg" xmlns:xlink="http://www.w3.org/1999/xlink" version="1.1" x="0" y="0" viewBox="6.3 11.5 87.4 77" style="enable-background:new 0 0 100 100;" xml:space="preserve" height="75.0988005992032" width="85.24201522558909" class="icon-icon-0" data-fill-palette-color="accent" id="icon-0"><path d="M72.3 12.3L71.9 11.5H28.2L6.3 50 28.1 88.5H71.8L93.7 50zM33.3 25.3L9.9 47.7 28.5 14.9zM70.7 14.8L77.1 50.5 36.9 25.8zM35.5 27.3L76.5 52.5 35.5 75.8zM77 54.5L69.8 85.3 37.2 77.2zM33.5 75L9.9 50.5 33.5 27.8zM33.2 77.6L28.6 85.3 11.5 55.1zM35 78.6L66.4 86.5H30.2zM79.3 53.3L90.9 50.8 72.1 84zM90.7 48.9L79.3 51.4 73.4 18.3zM35 24.3L30 13.5H68.2z" fill="#e9fc12" data-fill-palette-color="accent"></path></svg></g></svg></g></svg></g><defs></defs></svg><rect width="395.52" height="60.0953615285733" fill="none" stroke="none" visibility="hidden"></rect></g></svg></g></svg>