<?xml version="1.0" standalone="no"?>
<!DOCTYPE svg PUBLIC "-//W3C//DTD SVG 20010904//EN"
 "http://www.w3.org/TR/2001/REC-SVG-20010904/DTD/svg10.dtd">
<svg version="1.0" xmlns="http://www.w3.org/2000/svg"
 width="1525.000000pt" height="266.000000pt" viewBox="0 0 1525.000000 266.000000"
 preserveAspectRatio="xMidYMid meet">

<g transform="translate(0.000000,266.000000) scale(0.100000,-0.100000)"
fill="#000000" stroke="none">
<path d="M813 2423 c-23 -3 -37 -13 -51 -36 -11 -18 -155 -272 -322 -565 -265
-467 -301 -536 -292 -555 6 -12 150 -267 320 -567 l309 -545 649 -2 649 -3
323 568 322 568 -161 285 c-89 156 -233 410 -320 564 -87 154 -167 283 -176
287 -19 7 -1193 8 -1250 1z m1124 -65 c-14 -7 -939 -308 -948 -308 -5 0 -149
301 -149 312 0 1 249 3 554 3 305 0 549 -3 543 -7z m-1073 -187 c36 -79 66
-147 66 -151 0 -6 -158 -159 -619 -600 -9 -8 -27 -24 -40 -35 l-24 -20 15 25
c9 14 45 77 80 140 391 691 449 792 453 788 1 -2 32 -68 69 -147z m1181 127
c5 -25 35 -192 120 -668 31 -173 59 -324 62 -334 4 -14 1 -18 -10 -13 -9 3
-175 104 -369 223 -401 247 -561 345 -700 430 -54 32 -98 61 -98 64 0 7 948
318 972 319 11 1 20 -8 23 -21z m230 -348 c76 -135 176 -312 223 -395 46 -82
95 -169 109 -193 18 -31 21 -43 11 -46 -41 -13 -319 -69 -322 -65 -2 2 -40
211 -85 464 -45 253 -84 469 -87 480 -12 40 15 -4 151 -245z m-1216 -29 c25
-16 235 -144 466 -286 231 -142 479 -294 552 -339 72 -45 128 -84 125 -87 -4
-4 -110 -65 -237 -137 -126 -71 -393 -222 -593 -336 -199 -113 -365 -206 -367
-206 -3 0 -5 320 -5 710 0 391 3 710 7 710 3 0 27 -13 52 -29z m-121 -1018
l-3 -349 -150 155 c-82 86 -236 246 -342 355 -106 110 -193 203 -193 207 0 6
119 122 579 566 l106 101 3 -343 c1 -189 1 -501 0 -692z m1692 352 c0 -3 -86
-157 -191 -343 -105 -185 -225 -397 -266 -470 -42 -73 -77 -131 -80 -129 -2 2
42 200 99 440 l102 436 70 16 c270 59 266 59 266 50z m-511 -560 c-80 -342
-107 -445 -119 -445 -8 0 -226 52 -483 116 l-468 117 583 332 c321 184 585
331 587 329 3 -2 -42 -204 -100 -449z m-1405 2 l218 -227 -65 -107 c-35 -60
-68 -107 -72 -106 -5 1 -57 88 -118 195 -176 311 -333 590 -357 633 -24 44
-28 47 394 -388z m731 -372 l450 -114 -522 0 c-288 -1 -523 1 -523 4 0 9 134
225 140 225 3 0 208 -52 455 -115z"/>
<path d="M3410 2176 c-105 -29 -184 -88 -220 -163 -18 -38 -23 -65 -22 -128 1
-176 65 -256 312 -390 69 -37 144 -81 167 -98 136 -97 164 -284 58 -393 -32
-33 -52 -44 -98 -55 -74 -16 -209 0 -276 33 l-46 23 -25 127 c-16 81 -30 130
-39 133 -7 3 -29 3 -47 -1 l-34 -6 0 -149 0 -149 48 -23 c156 -79 378 -94 532
-37 155 58 256 212 235 359 -21 149 -124 252 -382 386 -132 68 -180 106 -211
167 -26 53 -30 150 -8 201 17 41 62 81 105 96 68 22 186 12 272 -25 l36 -16
24 -136 24 -137 45 0 45 0 3 151 3 151 -60 27 c-137 61 -327 84 -441 52z"/>
<path d="M5265 2180 c-27 -5 -76 -11 -107 -15 -56 -6 -58 -8 -58 -35 0 -27 3
-29 48 -35 26 -3 54 -7 62 -8 13 -2 15 -73 18 -559 l2 -557 -47 -6 c-27 -3
-55 -7 -63 -8 -9 -1 -16 -15 -18 -35 l-3 -32 205 0 206 0 0 30 c0 31 0 31 -85
48 l-40 8 -3 266 -2 266 44 54 c57 70 133 112 203 112 62 0 97 -26 113 -83 5
-20 10 -166 10 -328 l0 -292 -47 -6 c-78 -11 -83 -14 -83 -46 l0 -29 204 0
c214 0 222 2 206 45 -5 15 -22 22 -66 30 l-59 10 -5 330 c-5 343 -7 355 -50
396 -28 28 -72 47 -133 58 -108 20 -210 -17 -295 -108 l-43 -46 1 280 c1 154
1 286 1 293 -1 13 -38 14 -116 2z"/>
<path d="M10781 2180 c-74 -32 -139 -119 -167 -224 -8 -28 -17 -99 -20 -158
l-7 -108 -54 0 c-52 0 -53 -1 -53 -29 0 -28 3 -30 53 -38 l52 -8 3 -317 2
-317 -37 -10 c-21 -6 -46 -11 -55 -11 -21 0 -40 -33 -32 -54 5 -14 37 -16 240
-16 l234 0 0 30 c0 17 -1 30 -2 31 -2 0 -46 8 -98 17 l-95 17 0 305 0 305 65
11 c36 6 86 15 113 18 44 7 47 9 47 36 l0 29 -112 3 -113 3 3 120 c7 244 42
340 118 321 29 -8 45 -35 60 -106 l11 -55 50 2 c27 1 62 7 77 13 27 10 28 13
24 54 -7 55 -37 98 -85 122 -44 20 -185 30 -222 14z"/>
<path d="M14315 2174 c-123 -17 -125 -18 -125 -47 0 -20 6 -25 38 -31 20 -3
49 -6 63 -6 24 0 27 -4 33 -52 8 -69 8 -777 -1 -940 l-6 -126 -36 -7 c-92 -15
-91 -15 -91 -46 l0 -29 210 0 210 0 0 24 c0 31 -12 39 -80 51 l-55 10 -2 253
c-1 139 2 264 7 278 14 36 99 123 141 145 90 46 171 31 205 -37 17 -36 19 -63
19 -336 0 -163 -3 -299 -6 -303 -4 -3 -24 -8 -45 -11 -82 -11 -85 -13 -82 -42
l3 -27 208 -3 207 -2 0 29 c0 33 -8 37 -80 47 l-50 7 0 293 c0 179 -4 314 -11
346 -21 98 -105 151 -238 150 -80 -1 -170 -42 -229 -106 -25 -27 -44 -41 -48
-34 -4 6 -5 135 -3 287 l4 276 -30 1 c-16 1 -75 -4 -130 -12z"/>
<path d="M8890 2139 c0 -29 15 -39 58 -39 15 0 37 -3 50 -6 l22 -6 0 -528 c0
-290 -3 -541 -6 -558 -7 -34 -13 -37 -86 -47 -44 -6 -48 -8 -48 -34 l0 -28
220 0 220 0 0 28 c0 26 -3 28 -62 36 l-63 8 0 559 0 560 30 7 c17 4 47 10 68
14 34 5 38 9 35 31 l-3 25 -218 2 -217 2 0 -26z"/>
<path d="M12152 1866 c-39 -87 -80 -131 -133 -148 -33 -9 -39 -15 -39 -39 0
-30 2 -31 80 -43 l35 -6 0 -303 1 -302 26 -56 c35 -75 78 -103 163 -102 61 0
171 39 194 67 14 18 -6 59 -27 53 -127 -36 -152 -34 -179 16 -16 28 -18 64
-18 322 l0 290 105 15 105 15 3 33 3 32 -110 0 -111 0 0 115 0 115 -32 0 c-31
0 -35 -4 -66 -74z"/>
<path d="M4250 1762 c-167 -20 -162 -18 -158 -50 3 -25 8 -28 65 -36 l61 -9 5
-41 c7 -55 3 -1073 -4 -1081 -3 -3 -33 -9 -65 -13 -57 -7 -59 -8 -59 -37 l0
-30 223 -3 223 -2 -3 32 c-3 32 -5 33 -58 40 -111 16 -100 -8 -100 208 0 105
2 190 4 190 2 0 24 -11 49 -25 178 -100 412 -9 512 200 97 201 60 467 -81 593
-65 58 -119 77 -213 75 -74 -2 -158 -38 -228 -98 l-43 -37 0 66 c0 35 -3 66
-7 68 -5 2 -60 -2 -123 -10z m450 -102 c46 -23 83 -69 107 -131 13 -33 17 -77
17 -184 1 -121 -2 -150 -23 -212 -26 -81 -77 -148 -128 -169 -70 -30 -180 -8
-257 51 l-36 27 0 258 0 258 50 45 c83 75 190 98 270 57z"/>
<path d="M6449 1770 c-64 -11 -143 -54 -195 -106 -89 -88 -132 -230 -121 -399
17 -269 140 -396 387 -398 76 -1 93 3 151 30 35 17 79 44 98 60 l33 28 -20 25
-20 24 -40 -27 c-96 -67 -205 -84 -288 -45 -88 41 -135 142 -138 295 l-1 85
220 -2 c121 0 240 2 264 6 l44 7 -6 81 c-12 171 -83 289 -197 324 -53 16 -120
21 -171 12z m140 -98 c41 -43 61 -98 69 -188 l4 -61 -32 -7 c-18 -3 -99 -6
-181 -6 l-149 0 0 24 c0 43 39 152 70 195 40 55 84 81 139 81 38 0 49 -5 80
-38z"/>
<path d="M7085 1758 c-71 -9 -133 -17 -137 -17 -5 -1 -8 -14 -8 -30 0 -28 2
-29 65 -36 l65 -7 0 -348 0 -349 -47 -6 c-78 -11 -83 -14 -83 -46 l0 -29 230
0 230 0 0 30 c0 33 -4 35 -110 48 l-65 7 2 170 c1 94 2 212 2 262 1 92 1 93
37 132 19 22 56 50 81 62 39 19 56 21 128 16 l83 -6 6 31 c10 48 7 116 -5 123
-25 16 -125 9 -164 -12 -39 -21 -100 -79 -143 -137 l-22 -29 0 84 c0 46 -4 89
-8 94 -5 7 -51 4 -137 -7z"/>
<path d="M7972 1769 c-220 -37 -348 -259 -313 -545 28 -233 135 -343 345 -357
115 -8 201 19 279 86 l39 32 -20 25 -20 25 -29 -21 c-97 -72 -212 -93 -295
-54 -86 40 -131 131 -144 294 -5 70 -4 86 7 86 193 -2 510 7 518 15 15 15 -4
162 -29 227 -40 106 -107 169 -195 183 -78 12 -91 13 -143 4z m138 -97 c44
-43 70 -118 70 -198 0 -65 4 -64 -204 -64 l-159 0 7 38 c11 67 25 106 58 162
42 69 87 100 146 100 38 0 50 -5 82 -38z"/>
<path d="M9963 1770 c-64 -13 -113 -43 -177 -107 l-58 -58 7 77 c6 68 4 79
-10 84 -9 4 -65 1 -123 -5 -155 -18 -152 -17 -152 -50 0 -28 2 -29 65 -36 l65
-7 0 -348 0 -349 -47 -6 c-78 -11 -83 -14 -83 -46 l0 -29 206 0 205 0 -3 32
c-3 31 -5 33 -63 43 l-60 10 -3 264 -2 264 40 53 c60 80 121 117 197 122 58 4
64 2 92 -25 16 -16 34 -47 40 -69 7 -24 11 -150 11 -326 l0 -287 -47 -6 c-78
-11 -83 -14 -83 -46 l0 -29 206 0 205 0 -3 32 c-3 31 -5 33 -63 43 l-60 10 -5
330 c-5 327 -5 330 -29 373 -41 71 -161 113 -268 92z"/>
<path d="M11405 1770 c-93 -14 -190 -75 -245 -155 -135 -196 -109 -503 55
-653 74 -68 144 -94 255 -94 216 -1 371 145 400 378 22 176 -35 343 -153 442
-84 69 -198 100 -312 82z m133 -74 c18 -6 49 -27 69 -46 77 -76 107 -186 100
-365 -9 -232 -89 -350 -238 -350 -91 0 -163 62 -206 179 -24 65 -29 277 -9
369 38 168 158 259 284 213z"/>
<path d="M12906 1770 c-143 -25 -267 -148 -305 -305 -16 -64 -16 -226 -1 -301
35 -173 137 -271 306 -295 118 -17 252 21 318 90 23 24 26 32 17 50 -15 28
-24 27 -78 -10 -141 -97 -306 -70 -373 61 -37 73 -57 279 -27 281 6 0 110 0
229 -1 120 -1 234 2 254 6 l37 7 -7 75 c-9 96 -38 185 -81 243 -57 79 -171
118 -289 99z m120 -79 c17 -10 40 -39 52 -65 23 -49 49 -192 37 -204 -3 -4
-87 -8 -186 -10 l-179 -4 6 34 c29 166 106 268 204 268 19 0 49 -9 66 -19z"/>
<path d="M13739 1770 c-134 -23 -250 -131 -300 -280 -25 -75 -30 -239 -10
-324 39 -164 149 -271 305 -296 113 -18 233 13 310 80 40 35 44 51 20 71 -12
10 -19 10 -32 1 -10 -7 -44 -26 -77 -43 -124 -66 -245 -47 -305 48 -49 76 -64
142 -64 283 -1 104 3 137 22 195 54 165 170 243 266 180 27 -18 61 -83 71
-138 7 -36 8 -37 51 -37 52 0 114 23 114 42 0 35 -24 92 -52 124 -66 75 -201
115 -319 94z"/>
</g>
</svg>
