<?xml version="1.0" standalone="no"?>
<!DOCTYPE svg PUBLIC "-//W3C//DTD SVG 20010904//EN"
 "http://www.w3.org/TR/2001/REC-SVG-20010904/DTD/svg10.dtd">
<svg version="1.0" xmlns="http://www.w3.org/2000/svg"
 width="1200.000000pt" height="1200.000000pt" viewBox="0 0 1200.000000 1200.000000"
 preserveAspectRatio="xMidYMid meet">

<g transform="translate(0.000000,1200.000000) scale(0.100000,-0.100000)"
fill="#000000" stroke="none">
<path d="M0 6000 l0 -6000 6000 0 6000 0 0 6000 0 6000 -6000 0 -6000 0 0
-6000z m3330 5 c0 -530 -3 -805 -10 -805 -7 0 -10 275 -10 805 0 530 3 805 10
805 7 0 10 -275 10 -805z m681 776 c23 -23 29 -39 29 -70 0 -40 -1 -41 -34
-41 -30 0 -35 4 -41 31 -8 36 -31 48 -52 26 -26 -26 -7 -72 56 -135 65 -64 86
-112 78 -176 -8 -61 -51 -96 -118 -96 -43 0 -55 5 -80 29 -24 24 -29 38 -29
75 0 46 0 46 34 46 31 0 34 -3 40 -35 8 -40 18 -49 46 -40 15 5 20 15 20 45 0
34 -8 47 -56 97 -75 78 -87 104 -82 171 6 74 37 102 109 102 42 0 55 -5 80
-29z m849 -9 c17 -17 30 -44 35 -70 17 -104 -28 -182 -104 -182 l-41 0 0 -95
0 -95 -40 0 -40 0 0 235 0 235 81 0 c75 0 82 -2 109 -28z m720 -67 l0 -95 35
0 35 0 0 95 0 95 45 0 46 0 -1 -235 -1 -235 -45 0 -44 0 0 105 0 105 -35 0
-35 0 0 -105 0 -105 -40 0 -40 0 0 235 0 235 40 0 40 0 0 -95z m990 60 l0 -35
-65 0 -65 0 0 -60 0 -60 55 0 55 0 0 -35 0 -35 -55 0 -55 0 0 -70 0 -70 65 0
65 0 0 -35 0 -35 -105 0 -105 0 0 235 0 235 105 0 105 0 0 -35z m817 11 c26
-22 28 -30 28 -94 0 -54 -4 -75 -19 -91 -17 -18 -17 -21 -2 -36 9 -9 16 -17
17 -18 1 -1 4 -48 8 -105 l6 -102 -42 0 -43 0 -1 73 c-1 99 -9 121 -42 125
l-27 3 0 -100 0 -101 -40 0 -40 0 0 235 0 235 84 0 c75 0 88 -3 113 -24z m873
-11 l0 -35 -65 0 -65 0 0 -60 0 -60 50 0 50 0 0 -35 0 -35 -50 0 -50 0 0 -70
0 -70 65 0 65 0 0 -35 0 -35 -109 0 -110 0 -1 235 0 235 110 0 110 0 0 -35z
m-5905 -7 c124 -64 184 -187 185 -380 l0 -48 -119 0 -118 0 -6 81 c-9 117 -36
149 -125 149 -72 0 -112 -53 -112 -147 1 -107 38 -171 164 -292 234 -223 278
-287 312 -444 18 -86 18 -144 -1 -231 -27 -130 -83 -207 -185 -255 -75 -35
-239 -42 -326 -15 -152 47 -224 169 -224 377 l0 97 115 0 115 0 0 -57 c1 -121
31 -185 94 -199 116 -27 173 35 163 176 -8 123 -25 149 -234 355 -211 209
-249 288 -241 502 3 94 9 128 26 167 66 147 161 198 357 193 95 -3 117 -7 160
-29z m569 6 c14 -6 16 -84 16 -789 0 -665 -2 -784 -14 -788 -8 -3 -63 -5 -123
-4 l-108 2 -5 783 c-3 488 -1 787 5 793 10 10 204 13 229 3z m3609 -1024 c37
-30 47 -77 47 -233 0 -149 -10 -192 -51 -221 -30 -21 -112 -21 -144 0 -37 24
-45 65 -45 241 l0 165 34 34 c30 30 41 34 84 34 35 0 57 -6 75 -20z m2537 -7
c24 -23 31 -39 36 -85 l7 -58 -42 0 c-40 0 -41 1 -41 33 0 46 -23 76 -47 61
-16 -10 -18 -29 -21 -166 -2 -133 0 -157 14 -168 27 -24 49 0 52 59 l3 51 41
0 41 0 -5 -63 c-8 -98 -36 -127 -123 -127 -32 0 -51 7 -72 24 l-28 24 0 197 0
197 28 24 c42 36 116 34 157 -3z m-5090 -218 l0 -235 -45 0 -45 0 0 235 0 235
45 0 45 0 0 -235z m808 118 l30 -118 1 118 1 117 39 0 39 0 1 -235 2 -235 -45
0 c-41 0 -46 3 -52 28 -4 15 -22 81 -40 147 l-32 120 -1 -147 -1 -148 -40 0
-40 0 0 235 0 235 54 0 54 0 30 -117z m942 82 l0 -35 -60 0 -60 0 0 -60 0 -60
44 0 c43 0 44 -1 48 -35 l4 -35 -48 0 -48 0 0 -105 0 -105 -45 0 -45 0 0 235
1 235 105 0 104 0 0 -35z m1690 0 c0 -34 -1 -35 -40 -35 l-40 0 0 -200 0 -200
-40 0 -40 0 0 200 0 200 -40 0 c-39 0 -40 1 -40 35 l0 35 120 0 120 0 0 -35z
m840 0 l0 -35 -65 0 -65 0 0 -60 0 -60 50 0 50 0 0 -35 0 -35 -50 0 -50 0 0
-70 0 -70 65 0 65 0 0 -35 0 -35 -110 0 -110 0 0 235 1 235 110 0 109 0 0 -35z
m1540 13 c-1 -13 -2 -56 -1 -95 l1 -73 35 0 c19 0 34 3 34 8 -1 4 -1 46 0 95
l1 87 40 0 40 0 0 -235 0 -235 -40 0 -40 0 0 105 0 105 -35 0 -35 0 0 -105 0
-105 -45 0 -45 0 0 235 0 235 46 0 c41 0 45 -2 44 -22z"/>
<path d="M4750 6661 c0 -61 2 -71 18 -71 35 0 43 15 40 76 -3 56 -4 59 -30 62
l-28 3 0 -70z"/>
<path d="M7270 6666 c0 -58 2 -66 19 -66 30 0 42 25 39 77 -3 44 -5 48 -30 51
l-28 3 0 -65z"/>
<path d="M6430 5665 c-13 -34 -13 -266 0 -299 12 -33 47 -35 55 -3 3 12 4 90
3 172 -3 147 -3 150 -25 153 -17 3 -26 -3 -33 -23z"/>
</g>
</svg>
